<?xml version="1.0" encoding="utf-8"?>
<!-- Generator: Adobe Illustrator 25.4.1, SVG Export Plug-In . SVG Version: 6.00 Build 0)  -->
<svg version="1.1" xmlns="http://www.w3.org/2000/svg" xmlns:xlink="http://www.w3.org/1999/xlink" x="0px" y="0px" width="254px" height="54px"
	 viewBox="0 0 1424.6 278.3" style="enable-background:new 0 0 1424.6 278.3;" xml:space="preserve">
<style type="text/css">
	.st0{display:none;}
	.st1{display:inline;fill:#010101;}
	.st2{enable-background:new    ;}
	.st3{fill:#575757;}
	.st4{fill:#BBC0D0;}
	.st5{fill:#010101;}
	.st6{fill:#E9E8E8;}
	.st7{fill:#1F8CCB;}
	.st8{fill:#FFFFFF;}
</style>
<g id="BACKGROUND" class="st0">
</g>
<g id="ARTWORK">
	<g>
		<g class="st2">
			<path class="st5" d="M441.1,116.9c0,6.5-2.1,11.4-6.4,14.9c-4.2,3.4-10.3,5.2-18.1,5.2h-6.4v23.2h-10.1v-62h17.8
				c7.7,0,13.5,1.6,17.4,4.7C439.2,106.1,441.1,110.8,441.1,116.9z M410.2,128.5h5.4c5.2,0,9-0.9,11.4-2.7c2.4-1.8,3.6-4.6,3.6-8.5
				c0-3.6-1.1-6.2-3.3-8s-5.6-2.6-10.2-2.6h-7V128.5z"/>
			<path class="st5" d="M470.9,161c-7.3,0-13-2.1-17.1-6.4c-4.1-4.3-6.2-10.1-6.2-17.6c0-7.7,1.9-13.7,5.7-18.1s9.1-6.6,15.7-6.6
				c6.2,0,11.1,1.9,14.7,5.6c3.6,3.8,5.4,8.9,5.4,15.5v5.4h-31.2c0.1,4.5,1.4,8,3.7,10.5c2.3,2.4,5.6,3.7,9.8,3.7
				c2.8,0,5.3-0.3,7.7-0.8c2.4-0.5,5-1.4,7.7-2.6v8.1c-2.4,1.2-4.9,2-7.4,2.5C477,160.8,474.1,161,470.9,161z M469.1,120
				c-3.2,0-5.7,1-7.6,3c-1.9,2-3,4.9-3.4,8.8h21.3c-0.1-3.9-1-6.8-2.8-8.8C474.7,121,472.3,120,469.1,120z"/>
			<path class="st5" d="M522.2,112.4c2,0,3.7,0.1,5,0.4l-1,9.3c-1.4-0.3-2.9-0.5-4.4-0.5c-4,0-7.2,1.3-9.7,3.9
				c-2.5,2.6-3.7,6-3.7,10.1v24.5h-10v-46.9h7.8l1.3,8.3h0.5c1.6-2.8,3.6-5,6.1-6.7C516.7,113.3,519.4,112.4,522.2,112.4z"/>
			<path class="st5" d="M565.4,146.8c0,4.6-1.7,8.1-5,10.5c-3.3,2.4-8.1,3.7-14.3,3.7c-6.2,0-11.3-0.9-15-2.8v-8.6
				c5.5,2.5,10.6,3.8,15.4,3.8c6.1,0,9.2-1.9,9.2-5.6c0-1.2-0.3-2.2-1-3c-0.7-0.8-1.8-1.6-3.3-2.5c-1.6-0.8-3.7-1.8-6.5-2.9
				c-5.4-2.1-9-4.2-11-6.3c-1.9-2.1-2.9-4.8-2.9-8.1c0-4,1.6-7.1,4.9-9.3s7.6-3.3,13.2-3.3c5.5,0,10.7,1.1,15.6,3.3l-3.2,7.5
				c-5.1-2.1-9.3-3.1-12.8-3.1c-5.3,0-7.9,1.5-7.9,4.5c0,1.5,0.7,2.7,2.1,3.7c1.4,1,4.4,2.4,9,4.2c3.9,1.5,6.7,2.9,8.4,4.1
				c1.8,1.2,3.1,2.7,3.9,4.3S565.4,144.6,565.4,146.8z"/>
			<path class="st5" d="M615.7,136.6c0,7.7-2,13.6-5.9,17.9c-3.9,4.3-9.4,6.4-16.4,6.4c-4.4,0-8.3-1-11.6-3c-3.4-2-5.9-4.8-7.8-8.5
				s-2.7-8-2.7-12.9c0-7.6,1.9-13.5,5.8-17.8c3.9-4.3,9.4-6.4,16.5-6.4c6.8,0,12.1,2.2,16.1,6.5
				C613.7,123.4,615.7,129.2,615.7,136.6z M581.6,136.6c0,10.8,4,16.2,12,16.2c7.9,0,11.9-5.4,11.9-16.2c0-10.7-4-16.1-12-16.1
				c-4.2,0-7.2,1.4-9.1,4.2C582.5,127.5,581.6,131.5,581.6,136.6z"/>
			<path class="st5" d="M666.4,160.2h-10v-28.8c0-3.6-0.7-6.3-2.2-8.1c-1.5-1.8-3.8-2.7-6.9-2.7c-4.2,0-7.3,1.2-9.2,3.7
				c-2,2.5-2.9,6.7-2.9,12.5v23.4h-10v-46.9h7.8l1.4,6.1h0.5c1.4-2.2,3.4-4,6-5.2c2.6-1.2,5.5-1.8,8.6-1.8
				c11.2,0,16.9,5.7,16.9,17.2V160.2z"/>
			<path class="st5" d="M707.6,160.2l-2-6.5h-0.3c-2.3,2.9-4.5,4.8-6.8,5.8c-2.3,1-5.2,1.5-8.8,1.5c-4.6,0-8.2-1.2-10.8-3.7
				s-3.9-6-3.9-10.6c0-4.8,1.8-8.5,5.4-10.9c3.6-2.5,9.1-3.8,16.4-4l8.1-0.3V129c0-3-0.7-5.2-2.1-6.7c-1.4-1.5-3.6-2.2-6.5-2.2
				c-2.4,0-4.7,0.4-6.9,1.1c-2.2,0.7-4.3,1.5-6.4,2.5l-3.2-7.1c2.5-1.3,5.3-2.3,8.3-3s5.9-1,8.6-1c6,0,10.5,1.3,13.5,3.9
				c3,2.6,4.6,6.7,4.6,12.2v31.6H707.6z M692.8,153.4c3.6,0,6.5-1,8.7-3c2.2-2,3.3-4.9,3.3-8.5v-4.1l-6,0.3c-4.7,0.2-8.1,1-10.2,2.4
				s-3.2,3.5-3.2,6.4c0,2.1,0.6,3.7,1.9,4.9C688.4,152.8,690.3,153.4,692.8,153.4z"/>
			<path class="st5" d="M736.6,160.2h-10V94.2h10V160.2z"/>
			<path class="st5" d="M806.2,143.3c0,5.5-2,9.8-6,13c-4,3.1-9.5,4.7-16.5,4.7s-12.7-1.1-17.2-3.3v-9.6c2.8,1.3,5.8,2.4,9,3.1
				c3.2,0.8,6.1,1.1,8.9,1.1c4,0,7-0.8,8.9-2.3c1.9-1.5,2.9-3.6,2.9-6.1c0-2.3-0.9-4.3-2.6-5.9c-1.8-1.6-5.4-3.5-10.9-5.7
				c-5.7-2.3-9.6-4.9-12-7.8c-2.3-2.9-3.5-6.5-3.5-10.6c0-5.2,1.8-9.2,5.5-12.2c3.7-3,8.6-4.5,14.8-4.5c5.9,0,11.8,1.3,17.7,3.9
				l-3.2,8.3c-5.5-2.3-10.4-3.5-14.7-3.5c-3.3,0-5.8,0.7-7.5,2.1s-2.5,3.3-2.5,5.7c0,1.6,0.3,3,1,4.1c0.7,1.1,1.8,2.2,3.3,3.2
				c1.6,1,4.4,2.4,8.4,4c4.5,1.9,7.9,3.7,10,5.3s3.7,3.5,4.7,5.6C805.7,138.1,806.2,140.5,806.2,143.3z"/>
			<path class="st5" d="M835.6,161c-7.3,0-13-2.1-17.1-6.4c-4.1-4.3-6.2-10.1-6.2-17.6c0-7.7,1.9-13.7,5.7-18.1s9.1-6.6,15.7-6.6
				c6.2,0,11.1,1.9,14.7,5.6c3.6,3.8,5.4,8.9,5.4,15.5v5.4h-31.2c0.1,4.5,1.4,8,3.7,10.5c2.3,2.4,5.6,3.7,9.8,3.7
				c2.8,0,5.3-0.3,7.7-0.8s5-1.4,7.7-2.6v8.1c-2.4,1.2-4.9,2-7.4,2.5C841.6,160.8,838.8,161,835.6,161z M833.8,120
				c-3.2,0-5.7,1-7.6,3c-1.9,2-3,4.9-3.4,8.8H844c-0.1-3.9-1-6.8-2.8-8.8C839.4,121,836.9,120,833.8,120z"/>
			<path class="st5" d="M882,161c-7.1,0-12.5-2.1-16.2-6.2c-3.7-4.1-5.5-10.1-5.5-17.8c0-7.9,1.9-13.9,5.8-18.2
				c3.9-4.2,9.4-6.4,16.7-6.4c4.9,0,9.4,0.9,13.4,2.8l-3,8c-4.2-1.6-7.7-2.5-10.4-2.5c-8.1,0-12.2,5.4-12.2,16.1c0,5.3,1,9.2,3,11.8
				c2,2.6,5,4,8.9,4c4.4,0,8.6-1.1,12.6-3.3v8.7c-1.8,1-3.7,1.8-5.7,2.2C887.4,160.8,884.9,161,882,161z"/>
			<path class="st5" d="M937.2,160.2l-1.4-6.1h-0.5c-1.4,2.2-3.4,3.9-5.9,5.1c-2.6,1.2-5.5,1.9-8.8,1.9c-5.7,0-9.9-1.4-12.7-4.2
				c-2.8-2.8-4.2-7.1-4.2-12.8v-30.6h10v28.9c0,3.6,0.7,6.3,2.2,8.1c1.5,1.8,3.8,2.7,6.9,2.7c4.2,0,7.3-1.2,9.2-3.8
				c2-2.5,2.9-6.7,2.9-12.6v-23.4h10v46.9H937.2z"/>
			<path class="st5" d="M981,112.4c2,0,3.7,0.1,5,0.4l-1,9.3c-1.4-0.3-2.9-0.5-4.4-0.5c-4,0-7.2,1.3-9.7,3.9
				c-2.5,2.6-3.7,6-3.7,10.1v24.5h-10v-46.9h7.8l1.3,8.3h0.5c1.6-2.8,3.6-5,6.1-6.7C975.4,113.3,978.1,112.4,981,112.4z"/>
			<path class="st5" d="M992,100.9c0-1.8,0.5-3.1,1.5-4.1s2.4-1.4,4.2-1.4c1.8,0,3.1,0.5,4.1,1.4s1.5,2.3,1.5,4.1c0,1.7-0.5,3-1.5,4
				s-2.3,1.5-4.1,1.5c-1.8,0-3.2-0.5-4.2-1.5S992,102.6,992,100.9z M1002.6,160.2h-10v-46.9h10V160.2z"/>
			<path class="st5" d="M1032.3,153c2.4,0,4.9-0.4,7.3-1.1v7.5c-1.1,0.5-2.5,0.9-4.3,1.2c-1.7,0.3-3.5,0.5-5.4,0.5
				c-9.4,0-14.2-5-14.2-14.9v-25.3h-6.4v-4.4l6.9-3.6l3.4-9.9h6.1v10.4h13.4v7.5h-13.4v25.1c0,2.4,0.6,4.2,1.8,5.3
				C1028.8,152.4,1030.4,153,1032.3,153z"/>
			<path class="st5" d="M1039.8,113.3h10.8l9.5,26.6c1.4,3.8,2.4,7.3,2.9,10.7h0.3c0.3-1.6,0.7-3.4,1.4-5.7
				c0.7-2.2,4.3-12.8,10.8-31.6h10.8l-20,53.1c-3.6,9.7-9.7,14.6-18.2,14.6c-2.2,0-4.4-0.2-6.4-0.7v-7.9c1.5,0.3,3.2,0.5,5.1,0.5
				c4.8,0,8.2-2.8,10.1-8.3l1.7-4.4L1039.8,113.3z"/>
			<path class="st5" d="M1138.5,126.6h22.8v31.1c-3.7,1.2-7.3,2.1-10.7,2.6c-3.4,0.5-7.1,0.8-11.1,0.8c-9.4,0-16.6-2.8-21.7-8.3
				s-7.6-13.4-7.6-23.5c0-10,2.9-17.8,8.6-23.4c5.7-5.6,13.6-8.5,23.7-8.5c6.5,0,12.6,1.2,18.4,3.7l-3.6,8.4
				c-5-2.3-10.1-3.5-15.1-3.5c-6.6,0-11.8,2.1-15.7,6.2c-3.8,4.2-5.8,9.8-5.8,17c0,7.6,1.7,13.3,5.2,17.3c3.5,3.9,8.4,5.9,14.9,5.9
				c3.3,0,6.8-0.4,10.5-1.2v-16h-12.8V126.6z"/>
			<path class="st5" d="M1196.9,112.4c2,0,3.7,0.1,5,0.4l-1,9.3c-1.4-0.3-2.9-0.5-4.4-0.5c-4,0-7.2,1.3-9.7,3.9
				c-2.5,2.6-3.7,6-3.7,10.1v24.5h-10v-46.9h7.8l1.3,8.3h0.5c1.6-2.8,3.6-5,6.1-6.7C1191.3,113.3,1194,112.4,1196.9,112.4z"/>
			<path class="st5" d="M1250.1,136.6c0,7.7-2,13.6-5.9,17.9c-3.9,4.3-9.4,6.4-16.4,6.4c-4.4,0-8.3-1-11.6-3c-3.4-2-5.9-4.8-7.8-8.5
				s-2.7-8-2.7-12.9c0-7.6,1.9-13.5,5.8-17.8c3.9-4.3,9.4-6.4,16.5-6.4c6.8,0,12.1,2.2,16.1,6.5
				C1248.1,123.4,1250.1,129.2,1250.1,136.6z M1216,136.6c0,10.8,4,16.2,12,16.2c7.9,0,11.9-5.4,11.9-16.2c0-10.7-4-16.1-12-16.1
				c-4.2,0-7.2,1.4-9.1,4.2C1216.9,127.5,1216,131.5,1216,136.6z"/>
			<path class="st5" d="M1292.6,160.2l-1.4-6.1h-0.5c-1.4,2.2-3.4,3.9-5.9,5.1c-2.6,1.2-5.5,1.9-8.8,1.9c-5.7,0-9.9-1.4-12.7-4.2
				c-2.8-2.8-4.2-7.1-4.2-12.8v-30.6h10v28.9c0,3.6,0.7,6.3,2.2,8.1c1.5,1.8,3.8,2.7,6.9,2.7c4.2,0,7.3-1.2,9.2-3.8
				c2-2.5,2.9-6.7,2.9-12.6v-23.4h10v46.9H1292.6z"/>
			<path class="st5" d="M1336.4,161c-5.9,0-10.5-2.1-13.8-6.4h-0.6c0.4,4,0.6,6.4,0.6,7.2V181h-10v-67.7h8.1c0.2,0.9,0.7,3,1.4,6.3
				h0.5c3.1-4.7,7.8-7.1,14-7.1c5.8,0,10.4,2.1,13.7,6.4c3.3,4.2,4.9,10.2,4.9,17.8c0,7.7-1.7,13.6-5,17.9
				C1346.8,158.9,1342.3,161,1336.4,161z M1334,120.6c-4,0-6.8,1.2-8.7,3.5c-1.8,2.3-2.7,6-2.7,11.1v1.5c0,5.7,0.9,9.8,2.7,12.4
				c1.8,2.6,4.8,3.8,8.9,3.8c3.4,0,6.1-1.4,8-4.2c1.9-2.8,2.8-6.9,2.8-12.1c0-5.3-0.9-9.2-2.8-11.9S1337.6,120.6,1334,120.6z"/>
		</g>
		<g>
			<path class="st4" d="M275.8,228.7c0,0-41.3-22.3-58.4-43.5c0,0-77.9,16.2-162.9,56.8c0,0,50.9-61.7,98.1-97.4l-19-1.9l32.4-30.9
				c0,0-12.7-32-14.5-40.6c0,0,43.5-40.6,104.6-43.2c61-2.6,100.1,21.2,105.3,22.7c0,0,0.4,49.9-17.1,87.1
				C344.2,137.9,319.5,195.6,275.8,228.7z"/>
			<path class="st5" d="M156.7,73.5c0,0,49.9-39.8,104.9-39.1c55.1,0.7,75.2,11.5,93.4,19c0,12.7,3,102-80.7,167.1
				c0,0-24.6-9.7-58.4-45c-7.1,2.2-69.4,14.1-132.5,45.8c0,0,68.1-68.1,94.5-85.6l-20.8,0.4l17.5-17.9
				C174.6,118.2,161.2,87.3,156.7,73.5z"/>
			<path class="st6" d="M167.9,75c0,0,42-32,91.5-32s70.7,10.8,83,15.3c0,0,1.7,37.2-17.5,81.5c-2,4.6-20.1,39.1-48.7,66.2
				c-6-2.6-45-28.3-57.7-45.8c-6,1.9-84.1,28.3-98.6,37.6c0,0,53.6-46.9,80.4-58.4C200.2,139.4,173.4,95.1,167.9,75z"/>
			<polygon class="st5" points="221.4,113.9 213.8,118.5 246.7,127.7 254.9,124.7 			"/>
			<path class="st5" d="M271.3,117.3l6.1,3c0,0,31.8-8.8,58.8-8.2l0.2-0.8C336.5,111.2,324.6,108.1,271.3,117.3z"/>
			<path class="st5" d="M137.9,184.4c0,0,82.8-42.4,187-44.3l-5-1.7C319.9,138.4,218.8,137.1,137.9,184.4z"/>
			<path class="st7" d="M132.5,187c44.1-36.1,120.2-62.1,120.2-62.1l-32.2-10.6c62.1-39.8,121.8-49.2,121.8-49.2
				c-0.6,21.9-6.6,43.3-6.6,43.3c-27.5-0.4-74.8,8.3-74.8,8.3l51.5,19C312.4,135.7,232.8,137,132.5,187z"/>
		</g>
	</g>
</g>
</svg>
